<?xml version="1.0" standalone="no"?>
<!DOCTYPE svg PUBLIC "-//W3C//DTD SVG 20010904//EN"
 "http://www.w3.org/TR/2001/REC-SVG-20010904/DTD/svg10.dtd">
<svg version="1.0" xmlns="http://www.w3.org/2000/svg"
 width="100.000000pt" height="100.000000pt" viewBox="0 0 100.000000 100.000000"
 preserveAspectRatio="xMidYMid meet">

<g transform="translate(0.000000,100.000000) scale(0.100000,-0.100000)"
fill="#000000" stroke="none">
<path d="M72 888 c3 -29 7 -33 36 -36 29 -3 32 -6 32 -38 0 -33 -1 -34 -43
-34 -34 0 -49 -6 -70 -28 -25 -26 -27 -34 -27 -114 0 -81 1 -87 30 -117 24
-25 38 -31 70 -31 l40 0 0 -70 c0 -56 -3 -70 -15 -70 -8 0 -15 9 -15 20 0 12
-7 20 -17 21 -10 0 -29 2 -43 3 -47 6 -50 0 -50 -100 l0 -94 54 0 c49 0 55 2
58 22 5 35 23 23 26 -17 3 -34 2 -35 -33 -35 -36 0 -36 0 -33 -37 l3 -38 178
-3 177 -2 0 40 c0 39 -1 40 -36 40 -35 0 -35 1 -32 38 l3 37 127 3 127 3 7
-25 c9 -39 -2 -56 -36 -56 -28 0 -30 -2 -30 -40 l0 -40 173 2 172 3 3 38 c3
35 2 37 -27 37 -30 0 -31 2 -31 41 0 32 3 40 18 38 45 -4 73 3 101 27 l31 26
0 127 0 127 -45 12 c-25 7 -59 12 -75 12 -17 0 -31 6 -31 13 -1 6 -3 23 -5 37
-6 51 21 84 33 40 5 -17 14 -20 64 -20 l59 0 0 65 0 65 -75 0 c-41 0 -75 3
-76 8 0 4 -2 19 -4 35 -3 25 -1 27 31 27 32 0 34 2 34 35 l0 35 -142 0 -143 0
-38 -70 -38 -70 -58 0 -58 0 -27 53 c-47 92 -35 87 -195 87 l-142 0 3 -32z
m68 -253 c0 -42 -3 -55 -15 -55 -12 0 -15 13 -15 55 0 42 3 55 15 55 12 0 15
-13 15 -55z m250 -37 c0 -10 -7 -18 -15 -18 -11 0 -15 11 -15 43 1 41 1 42 15
17 8 -14 14 -33 15 -42z m238 11 c-4 -28 -28 -38 -28 -11 0 11 3 28 6 37 9 23
27 3 22 -26z m-175 -159 c9 -22 17 -47 17 -55 0 -8 5 -15 10 -15 6 0 10 -7 10
-15 0 -12 -14 -15 -65 -15 l-65 0 0 70 0 70 38 0 c34 0 39 -3 55 -40z m175
-27 l-3 -68 -62 -3 c-72 -3 -77 4 -43 73 11 22 19 46 20 53 0 8 16 12 45 12
l46 0 -3 -67z m252 3 c0 -36 -5 -68 -11 -71 -15 -10 -19 -3 -23 46 -6 55 2 89
20 89 11 0 14 -16 14 -64z"/>
</g>
</svg>
